<svg width="24" height="24" viewBox="0 0 24 24" fill="none" xmlns="http://www.w3.org/2000/svg">
<g id="BookOpenText">
<path id="Vector" d="M21.75 4.5H15.75C14.9544 4.5 14.1913 4.81607 13.6287 5.37868C13.0661 5.94129 12.75 6.70435 12.75 7.5V15.7247C12.7526 15.9182 12.6818 16.1056 12.5519 16.2491C12.422 16.3926 12.2425 16.4816 12.0497 16.4981C11.9471 16.5049 11.8442 16.4906 11.7474 16.456C11.6506 16.4213 11.5619 16.3672 11.4869 16.2968C11.4119 16.2265 11.3522 16.1415 11.3115 16.0471C11.2707 15.9527 11.2498 15.8509 11.25 15.7481V7.5C11.25 6.70435 10.9339 5.94129 10.3713 5.37868C9.80871 4.81607 9.04565 4.5 8.25 4.5H2.25C2.05109 4.5 1.86032 4.57902 1.71967 4.71967C1.57902 4.86032 1.5 5.05109 1.5 5.25V18.75C1.5 18.9489 1.57902 19.1397 1.71967 19.2803C1.86032 19.421 2.05109 19.5 2.25 19.5H9C9.59576 19.5 10.1672 19.7363 10.589 20.157C11.0108 20.5778 11.2485 21.1486 11.25 21.7444C11.247 21.8975 11.2915 22.0478 11.3775 22.1746C11.4635 22.3013 11.5866 22.3983 11.73 22.4522C11.8438 22.4961 11.9666 22.5116 12.0878 22.4973C12.209 22.483 12.3248 22.4394 12.4253 22.3702C12.5258 22.3011 12.6079 22.2084 12.6645 22.1003C12.721 21.9923 12.7504 21.872 12.75 21.75C12.75 21.1533 12.9871 20.581 13.409 20.159C13.831 19.7371 14.4033 19.5 15 19.5H21.75C21.9489 19.5 22.1397 19.421 22.2803 19.2803C22.421 19.1397 22.5 18.9489 22.5 18.75V5.25C22.5 5.05109 22.421 4.86032 22.2803 4.71967C22.1397 4.57902 21.9489 4.5 21.75 4.5ZM19.5 15.75H15.7753C15.5818 15.7526 15.3944 15.6818 15.2509 15.5519C15.1074 15.422 15.0184 15.2425 15.0019 15.0497C14.9951 14.9471 15.0094 14.8442 15.044 14.7474C15.0787 14.6506 15.1328 14.5619 15.2032 14.4869C15.2735 14.4119 15.3585 14.3522 15.4529 14.3115C15.5473 14.2707 15.6491 14.2498 15.7519 14.25H19.4766C19.6701 14.2474 19.8575 14.3182 20.001 14.4481C20.1445 14.578 20.2334 14.7575 20.25 14.9503C20.2568 15.0529 20.2425 15.1558 20.2078 15.2526C20.1732 15.3494 20.119 15.4381 20.0487 15.5131C19.9784 15.5881 19.8934 15.6478 19.799 15.6885C19.7046 15.7293 19.6028 15.7502 19.5 15.75ZM19.5 12.75H15.7753C15.5818 12.7526 15.3944 12.6818 15.2509 12.5519C15.1074 12.422 15.0184 12.2425 15.0019 12.0497C14.9951 11.9471 15.0094 11.8442 15.044 11.7474C15.0787 11.6506 15.1328 11.5619 15.2032 11.4869C15.2735 11.4119 15.3585 11.3522 15.4529 11.3115C15.5473 11.2707 15.6491 11.2498 15.7519 11.25H19.4766C19.6701 11.2474 19.8575 11.3182 20.001 11.4481C20.1445 11.578 20.2334 11.7575 20.25 11.9503C20.2568 12.0529 20.2425 12.1558 20.2078 12.2526C20.1732 12.3494 20.119 12.4381 20.0487 12.5131C19.9784 12.5881 19.8934 12.6478 19.799 12.6885C19.7046 12.7293 19.6028 12.7502 19.5 12.75ZM19.5 9.75H15.7753C15.5814 9.75308 15.3936 9.68252 15.2497 9.55255C15.1058 9.42258 15.0166 9.24288 15 9.04969C14.9932 8.9471 15.0075 8.8442 15.0422 8.74739C15.0768 8.65059 15.131 8.56193 15.2013 8.48694C15.2716 8.41194 15.3566 8.35221 15.451 8.31145C15.5454 8.27069 15.6472 8.24977 15.75 8.25H19.4747C19.6686 8.24692 19.8564 8.31748 20.0003 8.44745C20.1442 8.57742 20.2334 8.75713 20.25 8.95031C20.2568 9.0529 20.2425 9.1558 20.2078 9.25261C20.1732 9.34942 20.119 9.43807 20.0487 9.51306C19.9784 9.58806 19.8934 9.64779 19.799 9.68855C19.7046 9.72931 19.6028 9.75023 19.5 9.75Z" fill="#1461A3"/>
</g>
</svg>
