<svg width="24" height="24" viewBox="0 0 24 24" fill="none" xmlns="http://www.w3.org/2000/svg">
<g id="PlayCircle">
<path id="Vector" d="M12 2.25C10.0716 2.25 8.18657 2.82183 6.58319 3.89317C4.97982 4.96451 3.73013 6.48726 2.99218 8.26884C2.25422 10.0504 2.06114 12.0108 2.43735 13.9021C2.81355 15.7934 3.74215 17.5307 5.10571 18.8943C6.46928 20.2579 8.20656 21.1865 10.0979 21.5627C11.9892 21.9389 13.9496 21.7458 15.7312 21.0078C17.5127 20.2699 19.0355 19.0202 20.1068 17.4168C21.1782 15.8134 21.75 13.9284 21.75 12C21.7473 9.41498 20.7192 6.93661 18.8913 5.10872C17.0634 3.28084 14.585 2.25273 12 2.25ZM15.8016 12.6169L10.9266 15.9919C10.814 16.0697 10.6823 16.1152 10.5458 16.1236C10.4092 16.1319 10.2729 16.1028 10.1517 16.0392C10.0306 15.9757 9.92907 15.8802 9.85825 15.7631C9.78744 15.6461 9.75001 15.5118 9.75 15.375V8.625C9.75001 8.48817 9.78744 8.35395 9.85825 8.23687C9.92907 8.11978 10.0306 8.02431 10.1517 7.96077C10.2729 7.89723 10.4092 7.86806 10.5458 7.8764C10.6823 7.88475 10.814 7.9303 10.9266 8.00812L15.8016 11.3831C15.9013 11.4521 15.9829 11.5443 16.0392 11.6517C16.0956 11.7592 16.125 11.8787 16.125 12C16.125 12.1213 16.0956 12.2408 16.0392 12.3483C15.9829 12.4557 15.9013 12.5479 15.8016 12.6169Z" fill="#1461A3"/>
</g>
</svg>
